<svg xmlns="http://www.w3.org/2000/svg" width="375" viewBox="0 0 375 375" height="375" version="1.0"><defs><clipPath id="a"><path d="M 5.265625 78.664062 L 147 78.664062 L 147 146 L 5.265625 146 Z M 5.265625 78.664062"/></clipPath><clipPath id="b"><path d="M 247 157 L 369.765625 157 L 369.765625 175 L 247 175 Z M 247 157"/></clipPath><clipPath id="c"><path d="M 302 177 L 346 177 L 346 187.414062 L 302 187.414062 Z M 302 177"/></clipPath></defs><g clip-path="url(#a)"><path fill="#FFD964" d="M 138.363281 79.617188 C 140.992188 79.191406 143.628906 78.703125 146.296875 78.664062 C 138.601562 79.851562 130.992188 81.730469 123.722656 84.539062 C 117.019531 87.125 110.6875 90.660156 104.96875 95.007812 C 99.648438 98.984375 94.882812 103.628906 89.824219 107.925781 C 84.132812 112.648438 77.910156 116.699219 71.480469 120.335938 C 57.6875 128.074219 42.945312 133.984375 27.941406 138.914062 C 21.46875 141.007812 14.945312 142.949219 8.351562 144.617188 C 7.378906 144.835938 6.425781 145.171875 5.425781 145.234375 C 9.183594 144.320312 12.878906 143.140625 16.589844 142.046875 C 32.3125 137.214844 47.785156 131.390625 62.390625 123.792969 C 72.699219 118.40625 82.585938 112.082031 91.25 104.292969 C 93.316406 102.507812 95.175781 100.5 97.269531 98.742188 C 108.847656 88.71875 123.34375 82.335938 138.363281 79.617188 Z M 138.363281 79.617188"/></g><path fill="#FFD964" d="M 174.835938 80.84375 C 191.511719 79.75 208.25 81.042969 224.769531 83.375 C 229.085938 83.707031 233.121094 85.363281 237.183594 86.710938 C 249.925781 91.078125 262.53125 95.882812 274.75 101.550781 C 264.316406 100.617188 253.828125 100.308594 243.351562 100.285156 C 230.832031 100.226562 218.316406 100.59375 205.8125 101.210938 C 202.835938 101.375 199.824219 101.46875 196.882812 100.921875 C 194.542969 100.488281 192.238281 99.601562 190.410156 98.050781 C 185.433594 93.59375 180.707031 88.832031 175.332031 84.84375 C 174.402344 84.113281 173.246094 83.609375 172.582031 82.597656 C 172.324219 82.257812 172.277344 81.703125 172.667969 81.445312 C 173.289062 80.992188 174.09375 80.929688 174.835938 80.84375 Z M 174.835938 80.84375"/><path fill="#FFD964" d="M 148.140625 83.871094 C 152.394531 83.433594 156.757812 83.640625 160.878906 84.859375 C 166.359375 86.417969 171.304688 89.574219 175.328125 93.574219 C 178.707031 96.90625 181.453125 100.832031 183.75 104.972656 C 167.273438 105.640625 150.792969 106.25 134.316406 106.925781 C 132.054688 102.003906 129.128906 97.316406 125.273438 93.480469 C 124.640625 92.808594 123.761719 92.28125 123.476562 91.355469 C 123.425781 90.625 124.230469 90.3125 124.773438 90.042969 C 127.558594 88.871094 130.421875 87.90625 133.304688 87.011719 C 138.144531 85.542969 143.097656 84.363281 148.140625 83.871094 Z M 148.140625 83.871094"/><path fill="#FFD964" d="M 115.890625 94.152344 C 116.976562 93.617188 118.039062 92.867188 119.289062 92.820312 C 120.246094 92.917969 120.984375 93.628906 121.703125 94.203125 C 123.820312 96.105469 125.464844 98.460938 127.027344 100.824219 C 127.894531 102.167969 128.722656 103.539062 129.488281 104.949219 C 129.746094 105.460938 130.042969 106.089844 129.785156 106.660156 C 129.402344 107.246094 128.613281 107.175781 128.003906 107.195312 C 123.484375 107.132812 118.96875 107.214844 114.453125 107.347656 C 110.132812 107.539062 105.796875 107.773438 101.523438 108.464844 C 99.96875 108.738281 98.390625 109.03125 96.941406 109.6875 C 100.234375 104.070312 105.375 99.75 111.027344 96.621094 C 112.605469 95.71875 114.257812 94.957031 115.890625 94.152344 Z M 115.890625 94.152344"/><path fill="#FFD964" d="M 220.707031 104.003906 C 230.578125 103.765625 240.449219 103.507812 250.316406 103.050781 C 260.960938 102.691406 271.632812 102.839844 282.242188 103.824219 C 291.417969 104.625 300.582031 105.605469 309.714844 106.808594 C 314.53125 107.457031 319.34375 108.152344 324.109375 109.105469 C 331.171875 110.476562 338.3125 111.875 344.933594 114.773438 C 346.925781 115.660156 348.871094 116.65625 350.71875 117.816406 C 346.960938 116.367188 343.105469 115.132812 339.144531 114.375 C 337.460938 114.03125 335.746094 113.863281 334.0625 113.527344 C 332.152344 113.371094 330.230469 113.542969 328.316406 113.519531 C 322.363281 113.566406 316.394531 113.753906 310.492188 114.5625 C 309.722656 114.683594 308.828125 114.824219 308.347656 115.507812 C 307.921875 116.183594 308.242188 117.007812 308.546875 117.664062 C 310.597656 121.269531 312.429688 124.988281 314.332031 128.671875 C 315.632812 131.269531 316.988281 133.839844 318.25 136.457031 C 313.078125 128.226562 305.949219 121.253906 297.6875 116.136719 C 296.273438 115.269531 294.832031 114.445312 293.332031 113.738281 C 291.292969 112.800781 289.085938 112.289062 286.875 111.9375 C 282.621094 111.386719 278.429688 110.480469 274.203125 109.785156 C 254.042969 106.292969 233.605469 104.246094 213.144531 104.214844 C 215.660156 104.039062 218.183594 104.078125 220.707031 104.003906 Z M 220.707031 104.003906"/><path fill="#FFD964" d="M 271.023438 115.179688 C 274.21875 115.847656 277.4375 117.007812 279.886719 119.230469 C 281.308594 120.492188 282.359375 122.179688 282.8125 124.027344 C 283.109375 125.242188 282.953125 126.605469 282.199219 127.628906 C 281.292969 128.882812 279.839844 129.609375 278.398438 130.078125 C 279.71875 129.070312 281.078125 127.933594 281.632812 126.3125 C 282.167969 124.796875 281.667969 123.125 280.738281 121.875 C 279.285156 119.894531 277.226562 118.46875 275.140625 117.226562 C 273.816406 116.453125 272.4375 115.773438 271.023438 115.179688 Z M 271.023438 115.179688"/><path fill="#FFD964" d="M 332.414062 115.167969 C 333.300781 115.054688 334.199219 115.011719 335.089844 115.109375 C 339.304688 115.957031 343.566406 116.6875 347.660156 118.035156 C 348.859375 118.429688 350.054688 118.910156 351.03125 119.726562 C 352.335938 120.753906 353.171875 122.246094 353.710938 123.796875 C 354.65625 126.570312 355.648438 129.339844 356.328125 132.191406 C 356.605469 133.410156 356.921875 134.769531 356.289062 135.933594 C 355.921875 136.683594 355.054688 137.050781 354.25 137 C 346.203125 136.390625 338.132812 136.070312 330.0625 135.941406 C 327.996094 135.855469 325.859375 136.140625 323.867188 135.453125 C 321.628906 134.683594 320 132.835938 318.683594 130.953125 C 316.523438 127.816406 314.597656 124.527344 312.804688 121.171875 C 312.25 120.039062 311.730469 118.738281 312.054688 117.464844 C 312.308594 116.53125 313.3125 116.117188 314.199219 116.054688 C 320.25 115.460938 326.34375 115.464844 332.414062 115.167969 Z M 332.414062 115.167969"/><path fill="#FFD964" d="M 266.03125 115.375 C 269.183594 115.125 272.164062 116.550781 274.800781 118.121094 C 276.484375 119.144531 278.121094 120.351562 279.257812 121.984375 C 280.1875 123.3125 280.664062 124.996094 280.363281 126.605469 C 279.925781 128.054688 278.601562 129.054688 277.195312 129.476562 C 275.402344 130.003906 273.476562 129.933594 271.652344 129.585938 C 267.335938 128.75 263.609375 125.621094 261.863281 121.621094 C 261.320312 120.421875 261.238281 118.910156 262.105469 117.839844 C 263.09375 116.636719 264.417969 115.519531 266.03125 115.375 Z M 266.03125 115.375"/><path fill="#FFD964" d="M 286.605469 115.457031 C 289.722656 114.929688 292.847656 116.152344 295.378906 117.902344 C 297.003906 119.007812 298.4375 120.363281 299.765625 121.800781 C 300.980469 123.050781 301.757812 124.679688 302.183594 126.355469 C 302.484375 127.703125 302.503906 129.265625 301.617188 130.410156 C 300.570312 131.730469 298.765625 132.152344 297.15625 132.121094 C 292.839844 131.710938 288.746094 129.375 286.199219 125.867188 C 285.269531 124.609375 284.523438 123.21875 283.960938 121.761719 C 283.507812 120.425781 283.382812 118.90625 283.949219 117.582031 C 284.410156 116.492188 285.4375 115.671875 286.605469 115.457031 Z M 286.605469 115.457031"/><path fill="#FFD964" d="M 293.84375 115.929688 C 296.589844 117.417969 299.335938 118.984375 301.699219 121.058594 C 302.886719 122.132812 304.027344 123.34375 304.65625 124.84375 C 305.140625 125.964844 305.199219 127.308594 304.636719 128.414062 C 304.210938 129.320312 303.457031 130.007812 302.679688 130.613281 C 303.488281 129.144531 303.683594 127.359375 303.148438 125.765625 C 302.324219 123.210938 300.449219 121.179688 298.5 119.414062 C 297.058594 118.105469 295.433594 117.035156 293.84375 115.929688 Z M 293.84375 115.929688"/><path fill="#FFD964" d="M 354.515625 121.765625 C 354.59375 121.722656 354.75 121.640625 354.828125 121.597656 C 355.589844 121.761719 356.179688 122.335938 356.730469 122.859375 C 358.328125 124.550781 359.4375 126.632812 360.375 128.742188 C 360.996094 130.210938 361.683594 131.6875 361.90625 133.285156 C 361.976562 133.96875 362.039062 134.78125 361.53125 135.324219 C 361.210938 135.53125 360.863281 135.273438 360.625 135.070312 C 358.550781 133.03125 357.519531 130.226562 356.210938 127.6875 C 355.519531 126.214844 354.777344 124.742188 354.390625 123.152344 C 354.320312 122.703125 354.183594 122.148438 354.515625 121.765625 Z M 354.515625 121.765625"/><path fill="#FFD964" d="M 215.402344 126.800781 C 218.894531 126.175781 222.582031 126.203125 225.921875 127.503906 C 228.855469 128.605469 231.386719 130.609375 233.339844 133.039062 C 235.773438 136.0625 237.398438 139.667969 238.476562 143.375 C 239.640625 147.449219 240.195312 151.691406 240.140625 155.925781 C 239.921875 159.695312 239.421875 163.464844 238.421875 167.113281 C 237.476562 170.535156 236.070312 173.878906 233.914062 176.722656 C 232.019531 179.234375 229.496094 181.296875 226.578125 182.511719 C 223.273438 183.910156 219.578125 184.242188 216.035156 183.78125 C 219.121094 183.484375 222.171875 182.488281 224.667969 180.617188 C 227.496094 178.53125 229.53125 175.535156 230.925781 172.34375 C 232.730469 168.195312 233.632812 163.710938 234.160156 159.238281 C 234.726562 154.878906 234.644531 150.453125 234.097656 146.101562 C 233.621094 142.507812 232.746094 138.925781 231.074219 135.6875 C 229.636719 132.910156 227.527344 130.425781 224.804688 128.839844 C 221.992188 127.15625 218.644531 126.59375 215.402344 126.800781 Z M 215.402344 126.800781"/><path fill="#FFD964" d="M 98.78125 136.496094 C 100.398438 139.269531 102.140625 142.019531 104.417969 144.308594 C 105.746094 145.621094 107.285156 146.746094 109.039062 147.417969 C 110.878906 148.144531 112.875 148.328125 114.832031 148.46875 C 138.570312 149.910156 162.316406 151.257812 186.054688 152.644531 C 187.496094 152.777344 188.953125 152.707031 190.382812 152.957031 C 179.136719 152.710938 167.882812 152.601562 156.636719 152.398438 C 142.1875 152.191406 127.742188 151.945312 113.296875 151.742188 C 111.425781 151.660156 109.523438 151.835938 107.683594 151.441406 C 104.921875 150.820312 102.769531 148.527344 101.914062 145.890625 C 100.882812 142.753906 99.761719 139.644531 98.78125 136.496094 Z M 98.78125 136.496094"/><path fill="#FFD964" d="M 115.808594 156.136719 C 116.644531 156.039062 117.472656 155.839844 118.316406 155.847656 C 133.996094 156.464844 149.675781 157.027344 165.359375 157.492188 C 171.035156 157.632812 176.714844 157.824219 182.398438 157.839844 C 183.03125 157.855469 183.667969 157.914062 184.296875 157.996094 C 182.042969 157.9375 179.796875 158.1875 177.546875 158.214844 C 163.296875 158.792969 149.03125 158.832031 134.773438 158.769531 C 123.535156 158.714844 112.300781 158.519531 101.066406 158.253906 C 105.972656 157.507812 110.894531 156.847656 115.808594 156.136719 Z M 115.808594 156.136719"/><g clip-path="url(#b)"><path fill="#FFD964" d="M 247.570312 157.867188 C 247.699219 157.527344 248.078125 157.582031 248.371094 157.582031 C 256.78125 157.984375 265.199219 158.347656 273.621094 158.152344 C 274.9375 160.746094 277.1875 162.875 279.9375 163.878906 C 281.714844 164.5625 283.636719 164.832031 285.539062 164.746094 C 300.738281 165.707031 315.96875 166.5 331.210938 166.28125 C 336.636719 166.078125 342.058594 165.753906 347.464844 165.253906 C 351.667969 164.839844 355.871094 164.347656 360.007812 163.472656 C 361.785156 163.078125 363.570312 162.644531 365.257812 161.9375 C 366.128906 161.550781 367.054688 161.117188 367.585938 160.28125 C 368.457031 161.398438 368.84375 162.785156 369.242188 164.121094 C 369.609375 165.382812 369.367188 166.828125 368.496094 167.832031 C 367.238281 169.304688 365.375 170.050781 363.585938 170.65625 C 359.851562 171.839844 355.945312 172.351562 352.066406 172.808594 C 341.996094 173.867188 331.867188 174.167969 321.75 174.507812 C 300.832031 175.191406 279.875 174.574219 259.023438 172.808594 C 255.660156 172.503906 252.300781 172.195312 248.949219 171.796875 C 248.6875 171.726562 248.257812 171.765625 248.214844 171.410156 C 248.222656 166.894531 247.980469 162.367188 247.570312 157.867188 Z M 247.570312 157.867188"/></g><path fill="#FFD964" d="M 232.898438 180.480469 C 238.570312 175.597656 241.476562 168.089844 241.796875 160.730469 C 242.296875 162.765625 242.277344 164.878906 242.410156 166.957031 C 242.476562 169.722656 242.566406 172.496094 242.40625 175.257812 C 242.523438 175.828125 243.234375 175.984375 243.730469 176.09375 C 246.140625 176.457031 248.59375 176.425781 251.023438 176.613281 C 250.339844 177.757812 249.304688 178.632812 248.375 179.5625 C 246.933594 180.949219 245.425781 182.269531 243.882812 183.539062 C 242.109375 184.980469 239.6875 184.878906 237.542969 185.152344 C 232.929688 185.480469 228.28125 185.824219 223.664062 185.398438 C 227.035156 184.417969 230.238281 182.785156 232.898438 180.480469 Z M 232.898438 180.480469"/><path fill="#FFD964" d="M 64.691406 164.53125 C 68.964844 164.859375 73.21875 165.40625 77.488281 165.800781 C 97.214844 167.789062 116.957031 169.6875 136.710938 171.40625 C 149.925781 172.539062 163.144531 173.625 176.386719 174.386719 C 179.636719 174.515625 182.878906 174.761719 186.132812 174.789062 C 180.886719 174.863281 175.636719 174.71875 170.390625 174.679688 C 157.097656 174.570312 143.808594 174.464844 130.515625 174.410156 C 129.5625 174.386719 128.613281 174.441406 127.664062 174.371094 C 106.667969 171.105469 85.6875 167.773438 64.691406 164.53125 Z M 64.691406 164.53125"/><g clip-path="url(#c)"><path fill="#FFD964" d="M 333.148438 177.667969 C 337.261719 177.554688 341.371094 177.367188 345.46875 177.019531 C 344.765625 178.308594 343.5625 179.214844 342.464844 180.140625 C 337.367188 184.113281 331.128906 186.792969 324.636719 187.171875 C 320.492188 187.40625 316.300781 186.589844 312.550781 184.816406 C 308.933594 183.132812 305.722656 180.652344 302.960938 177.789062 C 313.023438 177.914062 323.089844 177.933594 333.148438 177.667969 Z M 333.148438 177.667969"/></g><g fill="#FFD964"><g><g><path d="M -0.203125 -2.046875 C 0.828125 -2.046875 1.601562 -2.203125 2.125 -2.515625 C 2.644531 -2.828125 3.050781 -3.34375 3.34375 -4.0625 L 13.359375 -27.828125 L 16.53125 -27.828125 L 25.703125 -4.0625 C 26.035156 -3.269531 26.40625 -2.734375 26.8125 -2.453125 C 27.21875 -2.179688 28.015625 -2.046875 29.203125 -2.046875 L 29.203125 0 L 17.75 0 L 17.75 -2.046875 C 19.382812 -2.046875 20.351562 -2.15625 20.65625 -2.375 C 20.957031 -2.59375 21.097656 -2.832031 21.078125 -3.09375 C 21.066406 -3.351562 20.988281 -3.675781 20.84375 -4.0625 L 19.171875 -8.71875 L 8.390625 -8.71875 L 6.46875 -4.0625 C 6.1875 -3.320312 6.273438 -2.800781 6.734375 -2.5 C 7.191406 -2.195312 8.265625 -2.046875 9.953125 -2.046875 L 9.953125 0 L -0.203125 0 Z M 18.4375 -10.765625 L 14.140625 -22.78125 L 9.21875 -10.765625 Z M 18.4375 -10.765625" transform="translate(103.158 230.369)"/></g></g></g><g fill="#FFD964"><g><g><path d="M 15.265625 -3.046875 C 13.722656 -0.765625 11.660156 0.375 9.078125 0.375 C 7.203125 0.375 5.742188 -0.195312 4.703125 -1.34375 C 3.671875 -2.5 3.15625 -4.222656 3.15625 -6.515625 L 3.15625 -14.21875 C 3.15625 -15.101562 3.078125 -15.679688 2.921875 -15.953125 C 2.765625 -16.222656 2.347656 -16.359375 1.671875 -16.359375 L 1.1875 -16.359375 L 1.1875 -18.40625 C 2.320312 -18.40625 3.144531 -18.492188 3.65625 -18.671875 C 4.175781 -18.847656 4.546875 -18.976562 4.765625 -19.0625 C 4.992188 -19.144531 5.265625 -19.1875 5.578125 -19.1875 C 6.210938 -19.1875 6.632812 -18.988281 6.84375 -18.59375 C 7.050781 -18.207031 7.15625 -17.585938 7.15625 -16.734375 L 7.15625 -6.390625 C 7.15625 -5.023438 7.300781 -4.09375 7.59375 -3.59375 C 8.132812 -2.644531 9.066406 -2.171875 10.390625 -2.171875 C 11.285156 -2.171875 12.164062 -2.519531 13.03125 -3.21875 C 13.894531 -3.925781 14.503906 -4.753906 14.859375 -5.703125 L 14.859375 -14.21875 C 14.835938 -15.132812 14.75 -15.71875 14.59375 -15.96875 C 14.445312 -16.226562 14.035156 -16.359375 13.359375 -16.359375 L 12.296875 -16.359375 L 12.296875 -18.40625 C 13.472656 -18.40625 14.378906 -18.492188 15.015625 -18.671875 C 15.648438 -18.847656 16.101562 -18.976562 16.375 -19.0625 C 16.65625 -19.144531 16.957031 -19.1875 17.28125 -19.1875 C 17.90625 -19.1875 18.328125 -19 18.546875 -18.625 C 18.765625 -18.257812 18.875 -17.65625 18.875 -16.8125 L 18.875 -4.9375 C 18.875 -3.738281 18.925781 -2.992188 19.03125 -2.703125 C 19.226562 -2.160156 19.722656 -1.890625 20.515625 -1.890625 C 20.941406 -1.890625 21.300781 -1.957031 21.59375 -2.09375 L 21.59375 -0.296875 C 21 0.148438 20.191406 0.375 19.171875 0.375 C 17.015625 0.375 15.710938 -0.765625 15.265625 -3.046875 Z M 15.265625 -3.046875" transform="translate(131.727 230.369)"/></g></g></g><g fill="#FFD964"><g><g><path d="M 9.265625 0.375 C 5.367188 0.375 3.421875 -1.789062 3.421875 -6.125 L 3.421875 -15.40625 C 3.421875 -15.882812 3.359375 -16.203125 3.234375 -16.359375 C 3.117188 -16.515625 2.867188 -16.59375 2.484375 -16.59375 L 0.96875 -16.59375 L 0.96875 -18.8125 L 1.65625 -18.8125 C 2.59375 -18.8125 3.28125 -19.109375 3.71875 -19.703125 C 4.15625 -20.296875 4.394531 -21.273438 4.4375 -22.640625 L 4.453125 -24.28125 L 7.421875 -24.28125 L 7.421875 -18.8125 L 13.125 -18.8125 L 13.125 -16.59375 L 7.421875 -16.59375 L 7.421875 -6.171875 C 7.421875 -3.878906 7.953125 -2.507812 9.015625 -2.0625 C 9.316406 -1.9375 9.613281 -1.875 9.90625 -1.875 C 11.207031 -1.875 12.054688 -2.941406 12.453125 -5.078125 L 14.609375 -5.078125 C 14.484375 -2.546875 13.425781 -0.863281 11.4375 -0.03125 C 10.789062 0.238281 10.066406 0.375 9.265625 0.375 Z M 9.265625 0.375" transform="translate(153.042 230.369)"/></g></g></g><g fill="#FFD964"><g><g><path d="M 1.671875 -9.5 C 1.671875 -10.988281 1.898438 -12.359375 2.359375 -13.609375 C 2.828125 -14.867188 3.476562 -15.910156 4.3125 -16.734375 C 5.9375 -18.367188 8.101562 -19.1875 10.8125 -19.1875 C 13.550781 -19.1875 15.757812 -18.363281 17.4375 -16.71875 C 19.113281 -15.082031 19.953125 -12.757812 19.953125 -9.75 C 19.953125 -6.738281 19.175781 -4.296875 17.625 -2.421875 C 16.082031 -0.554688 13.8125 0.375 10.8125 0.375 C 7.820312 0.375 5.550781 -0.53125 4 -2.34375 C 2.445312 -4.15625 1.671875 -6.539062 1.671875 -9.5 Z M 10.8125 -1.859375 C 12.25 -1.859375 13.414062 -2.515625 14.3125 -3.828125 C 15.207031 -5.140625 15.65625 -6.984375 15.65625 -9.359375 C 15.65625 -13.171875 14.691406 -15.554688 12.765625 -16.515625 C 12.171875 -16.804688 11.519531 -16.953125 10.8125 -16.953125 C 8.53125 -16.953125 7.039062 -15.566406 6.34375 -12.796875 C 6.09375 -11.847656 5.96875 -10.738281 5.96875 -9.46875 C 5.96875 -7.019531 6.414062 -5.140625 7.3125 -3.828125 C 8.21875 -2.515625 9.382812 -1.859375 10.8125 -1.859375 Z M 10.8125 -1.859375" transform="translate(167.81 230.369)"/></g></g></g><g fill="#FFF4EA"><g><g><path d="M 1.34375 -2.046875 C 2.644531 -2.046875 3.457031 -2.160156 3.78125 -2.390625 C 4.101562 -2.617188 4.296875 -2.859375 4.359375 -3.109375 C 4.421875 -3.367188 4.453125 -3.6875 4.453125 -4.0625 L 4.453125 -23.765625 C 4.453125 -24.566406 4.316406 -25.066406 4.046875 -25.265625 C 3.546875 -25.617188 2.644531 -25.796875 1.34375 -25.796875 L 1.34375 -27.828125 L 11.296875 -27.828125 C 19.285156 -27.828125 24.09375 -25.207031 25.71875 -19.96875 C 26.207031 -18.332031 26.453125 -16.578125 26.453125 -14.703125 C 26.453125 -12.828125 26.265625 -11.179688 25.890625 -9.765625 C 25.523438 -8.347656 25.007812 -7.097656 24.34375 -6.015625 C 23.070312 -3.941406 21.320312 -2.421875 19.09375 -1.453125 C 16.875 -0.484375 14.398438 0 11.671875 0 L 1.34375 0 Z M 12.078125 -2.0625 C 18.429688 -2.0625 21.609375 -6.203125 21.609375 -14.484375 C 21.609375 -18.023438 20.726562 -20.828125 18.96875 -22.890625 C 17.21875 -24.953125 14.609375 -25.984375 11.140625 -25.984375 L 8.625 -25.984375 L 8.625 -2.0625 Z M 12.078125 -2.0625" transform="translate(188.658 230.369)"/></g></g></g><g fill="#FFF4EA"><g><g><path d="M 18.984375 -8.546875 L 6.109375 -8.546875 C 6.109375 -6.421875 6.609375 -4.773438 7.609375 -3.609375 C 8.617188 -2.453125 9.867188 -1.875 11.359375 -1.875 C 13.347656 -1.875 14.773438 -2.695312 15.640625 -4.34375 L 18.40625 -4.359375 C 18.125 -3.035156 17.3125 -1.914062 15.96875 -1 C 14.625 -0.0820312 12.8125 0.375 10.53125 0.375 C 8.257812 0.375 6.296875 -0.332031 4.640625 -1.75 C 2.660156 -3.4375 1.671875 -5.820312 1.671875 -8.90625 C 1.671875 -11.988281 2.457031 -14.472656 4.03125 -16.359375 C 5.613281 -18.242188 7.875 -19.1875 10.8125 -19.1875 C 14.6875 -19.1875 17.191406 -17.628906 18.328125 -14.515625 C 18.785156 -13.265625 19.015625 -12.082031 19.015625 -10.96875 C 19.015625 -9.851562 19.003906 -9.046875 18.984375 -8.546875 Z M 14.703125 -11.34375 C 14.703125 -15.125 13.414062 -17.015625 10.84375 -17.015625 C 9.394531 -17.015625 8.265625 -16.453125 7.453125 -15.328125 C 6.640625 -14.203125 6.195312 -12.644531 6.125 -10.65625 L 14.671875 -10.65625 C 14.691406 -10.882812 14.703125 -11.113281 14.703125 -11.34375 Z M 14.703125 -11.34375" transform="translate(215.798 230.369)"/></g></g></g><g fill="#FFF4EA"><g><g><path d="M 14.21875 -15.75 C 13.5 -16.613281 12.492188 -17.046875 11.203125 -17.046875 C 8.796875 -17.046875 7.226562 -15.675781 6.5 -12.9375 C 6.25 -11.96875 6.125 -10.8125 6.125 -9.46875 C 6.125 -6.957031 6.601562 -5.0625 7.5625 -3.78125 C 8.53125 -2.507812 9.738281 -1.875 11.1875 -1.875 C 12.25 -1.875 13.148438 -2.179688 13.890625 -2.796875 C 14.640625 -3.421875 15.15625 -4.304688 15.4375 -5.453125 L 17.984375 -5.453125 C 17.984375 -3.921875 17.304688 -2.566406 15.953125 -1.390625 C 14.597656 -0.210938 12.757812 0.375 10.4375 0.375 C 8.113281 0.375 6.144531 -0.347656 4.53125 -1.796875 C 2.625 -3.492188 1.671875 -5.988281 1.671875 -9.28125 C 1.671875 -11.957031 2.460938 -14.273438 4.046875 -16.234375 C 5.640625 -18.203125 7.976562 -19.1875 11.0625 -19.1875 C 13.070312 -19.1875 14.75 -18.695312 16.09375 -17.71875 C 17.445312 -16.738281 18.125 -15.476562 18.125 -13.9375 C 18.125 -13.175781 17.878906 -12.539062 17.390625 -12.03125 C 16.898438 -11.519531 16.28125 -11.265625 15.53125 -11.265625 C 14.457031 -11.265625 13.710938 -11.765625 13.296875 -12.765625 C 13.179688 -13.066406 13.125 -13.394531 13.125 -13.75 C 13.125 -14.601562 13.488281 -15.269531 14.21875 -15.75 Z M 14.21875 -15.75" transform="translate(235.741 230.369)"/></g></g></g><g fill="#FFF4EA"><g><g><path d="M 1.671875 -9.5 C 1.671875 -10.988281 1.898438 -12.359375 2.359375 -13.609375 C 2.828125 -14.867188 3.476562 -15.910156 4.3125 -16.734375 C 5.9375 -18.367188 8.101562 -19.1875 10.8125 -19.1875 C 13.550781 -19.1875 15.757812 -18.363281 17.4375 -16.71875 C 19.113281 -15.082031 19.953125 -12.757812 19.953125 -9.75 C 19.953125 -6.738281 19.175781 -4.296875 17.625 -2.421875 C 16.082031 -0.554688 13.8125 0.375 10.8125 0.375 C 7.820312 0.375 5.550781 -0.53125 4 -2.34375 C 2.445312 -4.15625 1.671875 -6.539062 1.671875 -9.5 Z M 10.8125 -1.859375 C 12.25 -1.859375 13.414062 -2.515625 14.3125 -3.828125 C 15.207031 -5.140625 15.65625 -6.984375 15.65625 -9.359375 C 15.65625 -13.171875 14.691406 -15.554688 12.765625 -16.515625 C 12.171875 -16.804688 11.519531 -16.953125 10.8125 -16.953125 C 8.53125 -16.953125 7.039062 -15.566406 6.34375 -12.796875 C 6.09375 -11.847656 5.96875 -10.738281 5.96875 -9.46875 C 5.96875 -7.019531 6.414062 -5.140625 7.3125 -3.828125 C 8.21875 -2.515625 9.382812 -1.859375 10.8125 -1.859375 Z M 10.8125 -1.859375" transform="translate(254.515 230.369)"/></g></g></g><g fill="#FFF4EA"><g><g><path d="M 1.515625 -2.046875 C 2.585938 -2.046875 3.257812 -2.148438 3.53125 -2.359375 C 3.800781 -2.578125 3.960938 -2.8125 4.015625 -3.0625 C 4.066406 -3.3125 4.09375 -3.617188 4.09375 -3.984375 L 4.09375 -14.21875 C 4.09375 -15.101562 4.015625 -15.679688 3.859375 -15.953125 C 3.710938 -16.222656 3.296875 -16.359375 2.609375 -16.359375 L 1.484375 -16.359375 L 1.484375 -18.40625 C 2.660156 -18.40625 3.570312 -18.492188 4.21875 -18.671875 C 4.875 -18.847656 5.335938 -18.976562 5.609375 -19.0625 C 5.890625 -19.144531 6.191406 -19.1875 6.515625 -19.1875 C 7.140625 -19.1875 7.5625 -19 7.78125 -18.625 C 8 -18.257812 8.109375 -17.65625 8.109375 -16.8125 L 8.109375 -16.4375 C 9.171875 -17.6875 10.378906 -18.53125 11.734375 -18.96875 C 12.210938 -19.113281 12.691406 -19.1875 13.171875 -19.1875 C 14.097656 -19.1875 14.816406 -18.921875 15.328125 -18.390625 C 15.847656 -17.859375 16.109375 -17.203125 16.109375 -16.421875 C 16.109375 -15.640625 15.859375 -15 15.359375 -14.5 C 14.867188 -14.007812 14.269531 -13.765625 13.5625 -13.765625 C 12.875 -13.765625 12.300781 -14.007812 11.84375 -14.5 C 11.394531 -15 11.195312 -15.617188 11.25 -16.359375 C 10.738281 -16.285156 10.195312 -16.050781 9.625 -15.65625 C 9.050781 -15.269531 8.546875 -14.742188 8.109375 -14.078125 L 8.109375 -4.15625 C 8.109375 -3.6875 8.144531 -3.3125 8.21875 -3.03125 C 8.300781 -2.75 8.519531 -2.515625 8.875 -2.328125 C 9.226562 -2.140625 10.289062 -2.046875 12.0625 -2.046875 L 12.0625 0 L 1.515625 0 Z M 1.515625 -2.046875" transform="translate(275.367 230.369)"/></g></g></g><g fill="#FFF4EA"><g><g><path d="M 18.984375 -8.546875 L 6.109375 -8.546875 C 6.109375 -6.421875 6.609375 -4.773438 7.609375 -3.609375 C 8.617188 -2.453125 9.867188 -1.875 11.359375 -1.875 C 13.347656 -1.875 14.773438 -2.695312 15.640625 -4.34375 L 18.40625 -4.359375 C 18.125 -3.035156 17.3125 -1.914062 15.96875 -1 C 14.625 -0.0820312 12.8125 0.375 10.53125 0.375 C 8.257812 0.375 6.296875 -0.332031 4.640625 -1.75 C 2.660156 -3.4375 1.671875 -5.820312 1.671875 -8.90625 C 1.671875 -11.988281 2.457031 -14.472656 4.03125 -16.359375 C 5.613281 -18.242188 7.875 -19.1875 10.8125 -19.1875 C 14.6875 -19.1875 17.191406 -17.628906 18.328125 -14.515625 C 18.785156 -13.265625 19.015625 -12.082031 19.015625 -10.96875 C 19.015625 -9.851562 19.003906 -9.046875 18.984375 -8.546875 Z M 14.703125 -11.34375 C 14.703125 -15.125 13.414062 -17.015625 10.84375 -17.015625 C 9.394531 -17.015625 8.265625 -16.453125 7.453125 -15.328125 C 6.640625 -14.203125 6.195312 -12.644531 6.125 -10.65625 L 14.671875 -10.65625 C 14.691406 -10.882812 14.703125 -11.113281 14.703125 -11.34375 Z M 14.703125 -11.34375" transform="translate(291.247 230.369)"/></g></g></g></svg>